<svg width="100" height="100" viewBox="0 0 100 100" fill="none" xmlns="http://www.w3.org/2000/svg">
<path d="M26.878 27.0589L20.4526 20.6335V66.9684L20.5431 69.1403C20.5431 70.1358 20.7241 71.3123 21.0861 72.4887L71.9458 90.4073L84.6155 84.7964L26.878 27.0589Z" fill="#00C4B3"/>
<path d="M84.6152 84.7965L71.9455 90.4073L21.1763 72.4888C22.1717 76.1992 24.2532 80.3621 26.6061 82.715L43.1672 99.1856L80.0903 99.2761L84.6152 84.7965Z" fill="#22D3C5"/>
<path d="M20.6335 20.6335L0.905039 50.4978C-0.723921 52.2173 0.090559 55.8372 2.71499 58.5521L14.1177 70.0453L21.267 72.5792C20.9955 71.4028 20.724 70.2263 20.724 69.2308L20.6335 67.0589V20.6335Z" fill="#0075C9"/>
<path d="M72.3078 21.1765C71.1314 20.905 69.9549 20.724 68.9594 20.6335L66.697 20.543H20.4526L84.6155 84.7059L90.2264 72.0362L72.3078 21.1765Z" fill="#0075C9"/>
<path d="M82.534 26.6064C80.1811 24.2534 76.1087 22.0815 72.3078 21.1765L90.2264 72.0362L84.6155 84.7059L98.3712 80.2715V42.534L82.534 26.6064Z" fill="#00A8E1"/>
<path d="M69.7738 14.1177L58.2806 2.71499C55.6562 0.090559 52.0363 -0.723921 50.2263 0.905039L20.3621 20.6336H66.6064L68.8689 20.7241C69.8643 20.7241 71.0408 20.905 72.2173 21.267L69.7738 14.1177Z" fill="#00C4B3"/>
</svg>
