<svg width="98" height="100" viewBox="0 0 98 100" fill="none" xmlns="http://www.w3.org/2000/svg">
<path fill-rule="evenodd" clip-rule="evenodd" d="M89.3398 0C92.3484 0 95.1334 1.62806 96.5443 4.27463C97.8962 6.80966 97.8388 9.79696 96.3944 12.2765L96.3452 12.3599L83.6856 33.5373C82.254 35.932 79.6696 37.4267 76.9072 37.4585L76.8171 37.459L62.3607 37.4589L68.3693 51.2148L68.3933 51.2551L68.4302 51.3201C69.8452 53.8776 69.8107 56.9184 68.3433 59.4378L68.2938 59.5216L55.6342 80.699C54.2026 83.0937 51.6182 84.5883 48.856 84.6202L48.7659 84.6207L31.0225 84.6206L18.267 98.0742L18.2429 98.0991C17.0426 99.3193 15.4208 100 13.7299 100C13.3072 100 12.8843 99.9572 12.4658 99.872C10.4033 99.4509 8.68957 98.0356 7.86468 96.0836L7.84141 96.0278L1.12883 80.6186L1.09352 80.5595L1.05684 80.4959C1.05075 80.4851 1.04455 80.474 1.03808 80.4622C-0.376951 77.9049 -0.342678 74.8642 1.1246 72.3446L1.17404 72.2608L13.4525 51.721L4.40513 31.0082L4.57092 30.9237L4.56841 30.9113C4.18559 29.006 4.49376 27.0191 5.4769 25.2789L5.5312 25.1842L5.58139 25.0991L18.2411 3.92162C19.6728 1.52706 22.2574 0.0323866 25.0194 0H25.1095H89.3398ZM22.8666 84.4596L9.41567 84.4595L13.3663 93.5983L13.376 93.6226C13.4415 93.7863 13.5475 93.8759 13.7051 93.9083C13.8458 93.9373 13.9596 93.9075 14.0672 93.8094L14.086 93.7911L22.8666 84.4596ZM61.3186 53.0405H20.6596C20.6147 53.0405 20.5698 53.0421 20.525 53.0451L20.5127 53.0461L31.6611 78.5473H48.7639C49.4669 78.5473 50.1441 78.1709 50.5292 77.5664L50.5598 77.5169L63.2377 56.3265C63.6159 55.6944 63.6578 54.961 63.3581 54.3011C63.0126 53.54 62.2105 53.0405 61.3186 53.0405ZM16.4331 58.277L6.37101 75.2366C5.97063 75.9117 5.94742 76.7022 6.30596 77.3979L6.34399 77.4686L6.36425 77.5033L6.40487 77.5697L6.48534 77.6894L6.57517 77.8062L6.66111 77.9044L6.67602 77.9203L6.73414 77.9792L6.78464 78.0273C7.10116 78.3146 7.49243 78.4899 7.92397 78.5349L8.02092 78.5432L8.07705 78.5461L8.14818 78.5473H25.2205L16.4331 58.277ZM13.7872 37.5L18.2064 47.6351L18.2925 47.6058C19.0556 47.3504 19.8535 47.212 20.6602 47.1994L20.7813 47.1984L60.193 47.1983L55.9644 37.5002L13.7872 37.5ZM89.2275 5.91216H48.4234L59.5752 31.4189H76.6718C77.3761 31.4189 78.0539 31.0423 78.4392 30.4374L78.4698 30.3879L91.1485 9.19792C91.5266 8.56598 91.5684 7.83314 91.2691 7.17374C90.9306 6.42832 90.1544 5.93356 89.2844 5.91284L89.2275 5.91216ZM42.177 5.91216H25.1749C24.4757 5.91216 23.8014 6.28786 23.4178 6.89179L23.3873 6.94125L10.7419 28.1316C10.3644 28.7642 10.3226 29.4987 10.622 30.1595C10.9592 30.9042 11.7311 31.3976 12.596 31.4182L12.6525 31.4189H53.2994L42.177 5.91216Z" fill="#4B39EF"/>
</svg>
