<svg width="100" height="81" viewBox="0 0 100 81" fill="none" xmlns="http://www.w3.org/2000/svg">
<g clip-path="url(#clip0_790_4413)">
<path d="M63.4531 22.1612H66.5046L75.1981 13.4678L75.6256 9.77912C59.4501 -4.49762 34.7571 -2.95929 20.4804 13.2163C16.5109 17.7097 13.6312 23.0541 12.0635 28.8385C13.0318 28.4403 14.1049 28.3774 15.1151 28.6541L32.4978 25.787C32.4978 25.787 33.3822 24.3241 33.8391 24.4163C41.5727 15.9241 54.5878 14.9348 63.516 22.1612H63.4531Z" fill="#EA4335"/>
<path d="M87.5801 28.8384C85.5807 21.4821 81.4813 14.8677 75.7765 9.80835L63.5788 22.006C68.7303 26.2144 71.6645 32.5564 71.5387 39.2085V41.3756C77.5369 41.3756 82.395 46.2379 82.395 52.232C82.395 58.2302 77.5327 63.0883 71.5387 63.0883H49.8219L47.6548 65.2847V78.3082L49.8219 80.4753H71.5387C83.9879 80.5717 95.0328 72.5027 98.7298 60.6152C102.418 48.7236 97.8915 35.8133 87.5801 28.8384Z" fill="#4285F4"/>
<path d="M28.0756 80.3538H49.7925V62.971H28.0756C26.5289 62.971 24.999 62.6399 23.5906 61.9944L20.5391 62.9375L11.7869 71.631L11.024 74.6825C15.9325 78.3879 21.9223 80.3789 28.0756 80.3538Z" fill="#34A853"/>
<path d="M28.0756 23.9594C16.0121 24.0306 5.32759 31.7558 1.47966 43.1864C-2.36827 54.617 1.46708 67.2339 11.0282 74.586L23.6241 61.9901C18.1582 59.5212 15.7312 53.0913 18.2001 47.6254C20.669 42.1595 27.099 39.7325 32.5649 42.2014C34.9709 43.2912 36.899 45.2194 37.9889 47.6254L50.5848 35.0295C45.2237 28.0253 36.8949 23.93 28.0756 23.9594Z" fill="#FBBC05"/>
</g>
<defs>
<clipPath id="clip0_790_4413">
<rect width="100" height="80.4753" fill="white"/>
</clipPath>
</defs>
</svg>
