<svg width="100" height="93" viewBox="0 0 100 93" fill="none" xmlns="http://www.w3.org/2000/svg">
<path d="M49.9998 92.1175L68.4128 35.4487H31.5865L49.9995 92.1175H49.9998Z" fill="#E24329"/>
<path d="M49.9999 92.1171L31.5865 35.4482H5.78171L49.9999 92.1171Z" fill="#FC6D26"/>
<path d="M5.78169 35.4482L0.18637 52.6697C-0.0624154 53.4353 -0.0624497 54.26 0.186272 55.0256C0.434994 55.7913 0.919703 56.4585 1.57093 56.9317L49.9998 92.1174L5.7813 35.4486L5.78169 35.4482Z" fill="#FCA326"/>
<path d="M5.78171 35.4485H31.5865L20.4971 1.31709C19.9264 -0.439224 17.4418 -0.438833 16.8715 1.31709L5.78171 35.4485Z" fill="#E24329"/>
<path d="M49.9998 92.1171L68.4128 35.4482H94.218L49.9995 92.1171H49.9998Z" fill="#FC6D26"/>
<path d="M94.2179 35.4482L99.8132 52.6697C100.062 53.4354 100.062 54.2601 99.8131 55.0257C99.5644 55.7913 99.0796 56.4585 98.4283 56.9317L49.9998 92.1174L94.2179 35.4486V35.4482Z" fill="#FCA326"/>
<path d="M94.218 35.4485H68.4128L79.5026 1.31709C80.0733 -0.439224 82.5579 -0.438833 83.1282 1.31709L94.218 35.4485Z" fill="#E24329"/>
</svg>
